<svg width="100" height="38" viewBox="0 0 100 38" fill="none" xmlns="http://www.w3.org/2000/svg">
<path d="M29.5454 8.33813L30.4521 28.6526H26.1794L25.8626 20.9028L15.7461 35.9911L11.3548 21.8287L4.63372 37.8056H0L11.9243 9.45887L17.1561 26.2799L29.5454 8.33813Z" fill="white"/>
<path d="M19.9868 0C30.3167 0 38.6907 8.38998 38.6907 18.7395C38.6907 26.5706 33.8963 33.2797 27.088 36.0812L27.088 33.4329C32.5272 30.7893 36.2773 25.2032 36.2773 18.7395C36.2773 9.7254 28.9838 2.418 19.9868 2.418C10.9898 2.418 3.69627 9.7254 3.69627 18.7395C3.69627 22.5064 4.96993 25.9752 7.10931 28.7373L5.45992 28.7371L5.45963 30.5442C2.84799 27.322 1.28287 23.2139 1.28287 18.7395C1.28287 8.38998 9.65689 0 19.9868 0Z" fill="white"/>
<path fill-rule="evenodd" clip-rule="evenodd" d="M27.2924 33.3524L26.1596 32.7839H23.6833V36.574H26.1596L27.2924 35.9911V33.3524Z" fill="white"/>
<path d="M23.6837 33.3524H21.2202V34.2999H23.6837V33.3524Z" fill="white"/>
<path d="M23.6837 35.058H21.2202V36.0055H23.6837V35.058Z" fill="white"/>
<path d="M49.5505 15.3418L48.7311 13.4892L48.3571 15.3418L47.1458 21.4517H45.1685L47.8761 8.35901H48.0899L51.6881 15.4309L52.7569 17.8L53.8257 15.4309L57.3527 8.35901H57.5487L60.3632 21.4517H58.4037L57.0856 15.3418L56.6937 13.4892L55.9811 15.3418L52.8104 21.4517H52.7035L49.5505 15.3418ZM65.4805 21.6299C64.7443 21.6299 64.0644 21.4547 63.4409 21.1044C62.8175 20.7541 62.3187 20.2553 61.9446 19.6081C61.5705 18.9609 61.3835 18.2038 61.3835 17.3369C61.3835 16.4818 61.5468 15.7337 61.8734 15.0924C62.1999 14.4511 62.666 13.9524 63.2717 13.5961C63.8773 13.2398 64.5899 13.0617 65.4093 13.0617C65.8843 13.0617 66.3296 13.1448 66.7453 13.3111C67.1609 13.4773 67.5112 13.6822 67.7963 13.9256C68.0813 14.1691 68.2713 14.4096 68.3663 14.6471L68.4019 13.2755H70.2367V21.4517H68.4197L68.3841 20.0089C68.1822 20.4364 67.8141 20.8134 67.2797 21.14C66.7453 21.4666 66.1456 21.6299 65.4805 21.6299ZM65.8012 20.0267C66.4781 20.0267 67.0481 19.7921 67.5112 19.3231C67.9744 18.854 68.206 18.2394 68.206 17.4794V17.3547C68.206 16.8441 68.0991 16.3868 67.8853 15.9831C67.6716 15.5793 67.3806 15.2646 67.0125 15.039C66.6443 14.8133 66.2406 14.7005 65.8012 14.7005C65.0411 14.7005 64.4533 14.9469 64.0377 15.4398C63.622 15.9326 63.4142 16.5709 63.4142 17.3547C63.4142 18.1504 63.6191 18.7946 64.0288 19.2874C64.4385 19.7803 65.0293 20.0267 65.8012 20.0267ZM72.3535 13.2755H74.2773V14.8787C74.4673 14.3324 74.7761 13.893 75.2036 13.5605C75.6311 13.228 76.118 13.0617 76.6643 13.0617C77.0443 13.0617 77.3056 13.0973 77.4481 13.1686L77.1809 15.1102C77.074 15.039 76.8424 15.0033 76.4862 15.0033C75.928 15.0033 75.4203 15.1815 74.9631 15.5377C74.5059 15.894 74.2773 16.464 74.2773 17.2478V21.4517H72.3535V13.2755ZM78.4644 13.2755H80.6554L82.4189 16.9628L82.989 18.4413L83.559 16.9628L85.3047 13.2755H87.4423L83.1493 21.4517H82.7752L78.4644 13.2755ZM92.3231 21.6299C91.3493 21.6299 90.5358 21.4369 89.8827 21.0509C89.2295 20.665 88.7486 20.1484 88.4398 19.5012C88.1311 18.854 87.9767 18.1444 87.9767 17.3725C87.9767 16.5056 88.1578 15.7456 88.52 15.0924C88.8822 14.4393 89.3839 13.9375 90.0252 13.5872C90.6665 13.2369 91.3909 13.0617 92.1984 13.0617C93.4572 13.0617 94.3924 13.4091 95.004 14.1038C95.6156 14.7985 95.9214 15.7753 95.9214 17.0341C95.9214 17.3547 95.9036 17.6872 95.8679 18.0316H89.9896C90.1202 18.756 90.3785 19.2785 90.7645 19.5992C91.1504 19.9198 91.6878 20.0801 92.3765 20.0801C92.9466 20.0801 93.4157 20.0326 93.7838 19.9376C94.1519 19.8426 94.4904 19.712 94.7991 19.5457L95.387 20.9173C95.0901 21.1074 94.6863 21.2736 94.1757 21.4161C93.665 21.5586 93.0475 21.6299 92.3231 21.6299ZM94.051 16.6956C94.0629 15.9593 93.9026 15.4398 93.57 15.1369C93.2375 14.8341 92.7625 14.6827 92.145 14.6827C90.898 14.6827 90.1796 15.3537 89.9896 16.6956H94.051ZM98.0946 8.35901H100.001V21.4517H98.0946V8.35901ZM44.978 25.3815H46.2913C46.616 25.3815 46.8603 25.4818 47.0243 25.6824C47.1882 25.8829 47.2702 26.1265 47.2702 26.413C47.2702 26.6995 47.1882 26.9423 47.0243 27.1413C46.8603 27.3402 46.616 27.4397 46.2913 27.4397H45.4269V28.6718H44.978V25.3815ZM46.2865 25.797H45.4269V27.0243H46.2626C46.4504 27.0243 46.5913 26.9646 46.6852 26.8452C46.7791 26.7258 46.8261 26.5817 46.8261 26.413C46.8261 26.2443 46.7807 26.0994 46.69 25.9784C46.5993 25.8575 46.4648 25.797 46.2865 25.797ZM48.0553 27.0338C48.0553 26.5626 48.2161 26.1631 48.5376 25.8352C48.8592 25.5073 49.2524 25.3433 49.7172 25.3433C50.1852 25.3433 50.5807 25.5073 50.9039 25.8352C51.227 26.1631 51.3886 26.5626 51.3886 27.0338C51.3886 27.5018 51.227 27.8998 50.9039 28.2277C50.5807 28.5556 50.1852 28.7196 49.7172 28.7196C49.2524 28.7196 48.8592 28.5556 48.5376 28.2277C48.2161 27.8998 48.0553 27.5018 48.0553 27.0338ZM48.8528 26.1408C48.6172 26.3859 48.4994 26.6836 48.4994 27.0338C48.4994 27.384 48.6164 27.6809 48.8504 27.9244C49.0844 28.168 49.3733 28.2898 49.7172 28.2898C50.061 28.2898 50.3507 28.168 50.5863 27.9244C50.8219 27.6809 50.9397 27.384 50.9397 27.0338C50.9397 26.6836 50.8219 26.3859 50.5863 26.1408C50.3507 25.8957 50.061 25.7731 49.7172 25.7731C49.3765 25.7731 49.0884 25.8957 48.8528 26.1408ZM55.7123 25.3815H56.1899L55.0772 28.6718H54.6904L54.1078 26.6183L53.5299 28.6718H53.1431L52.0304 25.3815H52.508L53.3341 27.9555L53.9406 25.8256H54.2797L54.8862 27.9555L55.7123 25.3815ZM57.1087 25.3815H59.0571V25.797H57.5528V26.8476H58.866V27.263H57.5528V28.2563H59.1048V28.6718H57.1087V25.3815ZM61.5852 27.4254L62.4639 28.6718H61.9243L61.0742 27.4397H60.654V28.6718H60.2051V25.3815H61.4706C61.7953 25.3815 62.0389 25.4818 62.2012 25.6824C62.3636 25.8829 62.4448 26.1265 62.4448 26.413C62.4448 26.6804 62.374 26.9096 62.2323 27.1007C62.0906 27.2917 61.8749 27.3999 61.5852 27.4254ZM61.4563 25.797H60.654V27.0243H61.4372C61.625 27.0243 61.7635 26.9654 61.8526 26.8476C61.9418 26.7298 61.9864 26.5849 61.9864 26.413C61.9864 26.2443 61.9426 26.0994 61.855 25.9784C61.7675 25.8575 61.6346 25.797 61.4563 25.797ZM67.759 25.7779L67.439 26.0739C67.2098 25.8702 66.9455 25.7683 66.6463 25.7683C66.3056 25.7683 66.0175 25.8917 65.7819 26.1384C65.5463 26.3851 65.4285 26.6836 65.4285 27.0338C65.4285 27.384 65.5463 27.6817 65.7819 27.9268C66.0175 28.172 66.3056 28.2945 66.6463 28.2945C66.9455 28.2945 67.1923 28.2141 67.3865 28.0534C67.5807 27.8926 67.6841 27.6769 67.6969 27.4063H66.7609V27.0195H68.2031C68.2031 27.583 68.0646 28.0072 67.7876 28.2921C67.5106 28.5771 67.1302 28.7196 66.6463 28.7196C66.1815 28.7196 65.7883 28.5556 65.4667 28.2277C65.1452 27.8998 64.9844 27.5018 64.9844 27.0338C64.9844 26.5626 65.1452 26.1631 65.4667 25.8352C65.7883 25.5073 66.1815 25.3433 66.6463 25.3433C67.0761 25.3433 67.447 25.4881 67.759 25.7779ZM70.588 27.4254L71.4666 28.6718H70.927L70.077 27.4397H69.6567V28.6718H69.2078V25.3815H70.4733C70.7981 25.3815 71.0416 25.4818 71.204 25.6824C71.3664 25.8829 71.4475 26.1265 71.4475 26.413C71.4475 26.6804 71.3767 26.9096 71.235 27.1007C71.0934 27.2917 70.8777 27.3999 70.588 27.4254ZM70.459 25.797H69.6567V27.0243H70.4399C70.6278 27.0243 70.7662 26.9654 70.8554 26.8476C70.9445 26.7298 70.9891 26.5849 70.9891 26.413C70.9891 26.2443 70.9453 26.0994 70.8578 25.9784C70.7702 25.8575 70.6373 25.797 70.459 25.797ZM72.3473 27.0338C72.3473 26.5626 72.508 26.1631 72.8296 25.8352C73.1511 25.5073 73.5443 25.3433 74.0091 25.3433C74.4771 25.3433 74.8727 25.5073 75.1958 25.8352C75.519 26.1631 75.6805 26.5626 75.6805 27.0338C75.6805 27.5018 75.519 27.8998 75.1958 28.2277C74.8727 28.5556 74.4771 28.7196 74.0091 28.7196C73.5443 28.7196 73.1511 28.5556 72.8296 28.2277C72.508 27.8998 72.3473 27.5018 72.3473 27.0338ZM73.1448 26.1408C72.9092 26.3859 72.7914 26.6836 72.7914 27.0338C72.7914 27.384 72.9084 27.6809 73.1424 27.9244C73.3764 28.168 73.6653 28.2898 74.0091 28.2898C74.353 28.2898 74.6427 28.168 74.8783 27.9244C75.1138 27.6809 75.2316 27.384 75.2316 27.0338C75.2316 26.6836 75.1138 26.3859 74.8783 26.1408C74.6427 25.8957 74.353 25.7731 74.0091 25.7731C73.6685 25.7731 73.3804 25.8957 73.1448 26.1408ZM77.3968 28.0796C77.5433 28.2197 77.7216 28.2898 77.9317 28.2898C78.1418 28.2898 78.3201 28.2197 78.4666 28.0796C78.613 27.9396 78.6862 27.7597 78.6862 27.54V25.3815H79.1351V27.54C79.1351 27.8902 79.0181 28.1743 78.7841 28.3924C78.5501 28.6105 78.266 28.7196 77.9317 28.7196C77.5974 28.7196 77.3133 28.6105 77.0793 28.3924C76.8453 28.1743 76.7283 27.8902 76.7283 27.54V25.3815H77.1772V27.54C77.1772 27.7597 77.2504 27.9396 77.3968 28.0796ZM81.711 25.3815C82.0357 25.3815 82.2801 25.4818 82.444 25.6824C82.608 25.8829 82.69 26.1265 82.69 26.413C82.69 26.6995 82.608 26.9423 82.444 27.1413C82.2801 27.3402 82.0357 27.4397 81.711 27.4397H80.8467V28.6718H80.3978V25.3815H81.711ZM81.7062 25.797H80.8467V27.0243H81.6824C81.8702 27.0243 82.0111 26.9646 82.105 26.8452C82.1989 26.7258 82.2459 26.5817 82.2459 26.413C82.2459 26.2443 82.2005 26.0994 82.1098 25.9784C82.019 25.8575 81.8845 25.797 81.7062 25.797Z" fill="white"/>
</svg>
